<mxfile host="app.diagrams.net" modified="2024-02-25T14:51:49.506Z" agent="Mozilla/5.0 (Windows NT 10.0; Win64; x64) AppleWebKit/537.36 (KHTML, like Gecko) Chrome/122.0.0.0 Safari/537.36" etag="CL540bUkBWXymFASxr5o" version="23.1.6" type="device">
  <diagram name="Page-1" id="RkxlCLczyI4uSv_1kQ8L">
    <mxGraphModel dx="1050" dy="522" grid="1" gridSize="10" guides="1" tooltips="1" connect="1" arrows="1" fold="1" page="1" pageScale="1" pageWidth="850" pageHeight="1100" math="0" shadow="0">
      <root>
        <mxCell id="0" />
        <mxCell id="1" parent="0" />
        <mxCell id="Le48BGhg_fn2FHkZL2bV-5" style="edgeStyle=orthogonalEdgeStyle;rounded=0;orthogonalLoop=1;jettySize=auto;html=1;entryX=1;entryY=0.5;entryDx=0;entryDy=0;dashed=1;endArrow=none;endFill=0;" edge="1" parent="1" source="Le48BGhg_fn2FHkZL2bV-1" target="Le48BGhg_fn2FHkZL2bV-3">
          <mxGeometry relative="1" as="geometry" />
        </mxCell>
        <mxCell id="Le48BGhg_fn2FHkZL2bV-1" value="&lt;b&gt;&lt;font style=&quot;font-size: 19px;&quot;&gt;:User&lt;/font&gt;&lt;/b&gt;" style="rounded=0;whiteSpace=wrap;html=1;" vertex="1" parent="1">
          <mxGeometry x="120" y="40" width="120" height="60" as="geometry" />
        </mxCell>
        <mxCell id="Le48BGhg_fn2FHkZL2bV-7" style="edgeStyle=orthogonalEdgeStyle;rounded=0;orthogonalLoop=1;jettySize=auto;html=1;entryX=1;entryY=0.5;entryDx=0;entryDy=0;dashed=1;endArrow=none;endFill=0;" edge="1" parent="1" source="Le48BGhg_fn2FHkZL2bV-2" target="Le48BGhg_fn2FHkZL2bV-4">
          <mxGeometry relative="1" as="geometry" />
        </mxCell>
        <mxCell id="Le48BGhg_fn2FHkZL2bV-2" value="&lt;b&gt;&lt;font style=&quot;font-size: 17px;&quot;&gt;:Destination&lt;/font&gt;&lt;/b&gt;" style="rounded=0;whiteSpace=wrap;html=1;" vertex="1" parent="1">
          <mxGeometry x="580" y="40" width="120" height="60" as="geometry" />
        </mxCell>
        <mxCell id="Le48BGhg_fn2FHkZL2bV-6" style="edgeStyle=orthogonalEdgeStyle;rounded=0;orthogonalLoop=1;jettySize=auto;html=1;dashed=1;endArrow=cross;endFill=0;" edge="1" parent="1" source="Le48BGhg_fn2FHkZL2bV-3">
          <mxGeometry relative="1" as="geometry">
            <mxPoint x="180" y="480" as="targetPoint" />
          </mxGeometry>
        </mxCell>
        <mxCell id="Le48BGhg_fn2FHkZL2bV-9" style="edgeStyle=orthogonalEdgeStyle;rounded=0;orthogonalLoop=1;jettySize=auto;html=1;exitX=0.75;exitY=1;exitDx=0;exitDy=0;entryX=0.75;entryY=0;entryDx=0;entryDy=0;" edge="1" parent="1" source="Le48BGhg_fn2FHkZL2bV-3" target="Le48BGhg_fn2FHkZL2bV-4">
          <mxGeometry relative="1" as="geometry" />
        </mxCell>
        <mxCell id="Le48BGhg_fn2FHkZL2bV-3" value="" style="rounded=0;whiteSpace=wrap;html=1;rotation=-90;" vertex="1" parent="1">
          <mxGeometry x="57.5" y="276.25" width="245" height="22.5" as="geometry" />
        </mxCell>
        <mxCell id="Le48BGhg_fn2FHkZL2bV-8" style="edgeStyle=orthogonalEdgeStyle;rounded=0;orthogonalLoop=1;jettySize=auto;html=1;dashed=1;endArrow=cross;endFill=0;" edge="1" parent="1" source="Le48BGhg_fn2FHkZL2bV-4">
          <mxGeometry relative="1" as="geometry">
            <mxPoint x="640" y="480" as="targetPoint" />
          </mxGeometry>
        </mxCell>
        <mxCell id="Le48BGhg_fn2FHkZL2bV-10" style="edgeStyle=orthogonalEdgeStyle;rounded=0;orthogonalLoop=1;jettySize=auto;html=1;exitX=0.5;exitY=0;exitDx=0;exitDy=0;entryX=0.5;entryY=1;entryDx=0;entryDy=0;dashed=1;" edge="1" parent="1" source="Le48BGhg_fn2FHkZL2bV-4" target="Le48BGhg_fn2FHkZL2bV-3">
          <mxGeometry relative="1" as="geometry" />
        </mxCell>
        <mxCell id="Le48BGhg_fn2FHkZL2bV-4" value="" style="rounded=0;whiteSpace=wrap;html=1;rotation=-90;" vertex="1" parent="1">
          <mxGeometry x="517.5" y="276.25" width="245" height="22.5" as="geometry" />
        </mxCell>
        <mxCell id="Le48BGhg_fn2FHkZL2bV-11" value="&lt;b&gt;&lt;font style=&quot;font-size: 16px;&quot;&gt;Search Destination()&lt;/font&gt;&lt;/b&gt;" style="text;html=1;align=center;verticalAlign=middle;whiteSpace=wrap;rounded=0;" vertex="1" parent="1">
          <mxGeometry x="320" y="190" width="160" height="30" as="geometry" />
        </mxCell>
        <mxCell id="Le48BGhg_fn2FHkZL2bV-12" value="&lt;i&gt;&lt;u&gt;&lt;font style=&quot;font-size: 15px;&quot;&gt;return status&lt;/font&gt;&lt;/u&gt;&lt;/i&gt;" style="text;html=1;align=center;verticalAlign=middle;whiteSpace=wrap;rounded=0;" vertex="1" parent="1">
          <mxGeometry x="347.5" y="298.75" width="105" height="30" as="geometry" />
        </mxCell>
      </root>
    </mxGraphModel>
  </diagram>
</mxfile>
